<svg id="Laag_1" data-name="Laag 1" xmlns="http://www.w3.org/2000/svg" viewBox="0 0 2279.99 2279.99"><defs><style>.cls-1{fill:#cc9f9f;stroke:#1d1d1b;opacity:0;}.cls-1,.cls-5{stroke-miterlimit:10;}.cls-2,.cls-4{fill:#e42414;}.cls-3{fill:#fff;}.cls-4{opacity:0.53;}.cls-5{fill:none;stroke:#fff;stroke-width:16px;}</style></defs><title>iconBookClosed</title><rect class="cls-1" x="0.5" y="0.5" width="2278.99" height="2278.99"/><path class="cls-2" d="M1323,2014.14h1096.8a56.87,56.87,0,0,0,56.87-56.87l-157.73-1591A56.87,56.87,0,0,0,2262,309.44H1165.22A152.18,152.18,0,0,0,1013,461.62L1170.77,1862A152.18,152.18,0,0,0,1323,2014.14Z" transform="translate(-613.38 6.14)"/><path class="cls-3" d="M1340.83,1986.93h1096.8a56.87,56.87,0,0,0,56.87-56.87l-157.73-1591a56.87,56.87,0,0,0-56.87-56.87H1183.09a152.18,152.18,0,0,0-152.18,152.18l157.73,1400.33A152.18,152.18,0,0,0,1340.83,1986.93Z" transform="translate(-613.38 6.14)"/><path class="cls-2" d="M1376.6,1958.28H2473.4a56.87,56.87,0,0,0,56.87-56.87l-157.73-1591a56.87,56.87,0,0,0-56.87-56.87H1218.87a152.18,152.18,0,0,0-152.18,152.18L1224.42,1806.1A152.18,152.18,0,0,0,1376.6,1958.28Z" transform="translate(-613.38 6.14)"/><line class="cls-4" x1="1701.08" y1="306.16" x2="1869.43" y2="1895.14"/><line class="cls-5" x1="667.58" y1="462.04" x2="1470.31" y2="462.04"/><line class="cls-5" x1="704.31" y1="551.23" x2="1507.03" y2="551.23"/><line class="cls-5" x1="730.09" y1="629.11" x2="1532.81" y2="629.11"/><line class="cls-5" x1="752.18" y1="711.58" x2="1554.91" y2="711.58"/><line class="cls-5" x1="752.18" y1="789.27" x2="1554.91" y2="789.27"/></svg>