<svg id="Laag_1" data-name="Laag 1" xmlns="http://www.w3.org/2000/svg" viewBox="0 0 2279.99 2279.99"><defs><style>.cls-1{fill:#cc9f9f;stroke:#1d1d1b;opacity:0;}.cls-1,.cls-4,.cls-5{stroke-miterlimit:10;}.cls-2{fill:#e42414;}.cls-3{fill:#fff;}.cls-4{fill:none;stroke:#0b0c0c;stroke-width:25px;}.cls-5{fill:#5b94c6;stroke:#555454;stroke-width:4px;}</style></defs><title>iconBookOpen</title><rect class="cls-1" x="0.5" y="0.5" width="2278.99" height="2278.99"/><path class="cls-2" d="M2609.9,1771.62H1789.24a42.55,42.55,0,0,1-42.55-42.55l6.42-1190.41a42.55,42.55,0,0,1,42.55-42.55h820.66A113.87,113.87,0,0,1,2730.19,610l-6.42,1047.78A113.87,113.87,0,0,1,2609.9,1771.62Z" transform="translate(-613.38 6.14)"/><path class="cls-2" d="M890.17,496.1h820.66a42.55,42.55,0,0,1,42.55,42.55L1747,1729.06a42.55,42.55,0,0,1-42.55,42.55H883.74a113.87,113.87,0,0,1-113.87-113.87L776.3,610A113.87,113.87,0,0,1,890.17,496.1Z" transform="translate(-613.38 6.14)"/><rect class="cls-3" x="294.97" y="612.28" width="838.33" height="1032.16"/><rect class="cls-3" x="1140" y="612.28" width="838.33" height="1032.16"/><line class="cls-4" x1="399.58" y1="829.71" x2="776.18" y2="829.71"/><line class="cls-4" x1="399.58" y1="884.65" x2="776.18" y2="884.65"/><line class="cls-4" x1="399.58" y1="951.66" x2="852.89" y2="951.66"/><line class="cls-4" x1="430.96" y1="1007.55" x2="971.45" y2="1007.55"/><line class="cls-4" x1="472.8" y1="1154" x2="1048.16" y2="1154"/><line class="cls-4" x1="448.4" y1="1066.83" x2="587.88" y2="1066.83"/><line class="cls-4" x1="399.58" y1="1220.26" x2="675.05" y2="1220.26"/><line class="cls-4" x1="430.96" y1="1345.79" x2="776.18" y2="1345.79"/><line class="cls-4" x1="648.24" y1="1066.83" x2="831.97" y2="1066.83"/><line class="cls-4" x1="430.96" y1="746.02" x2="905.19" y2="746.02"/><line class="cls-4" x1="1234.87" y1="829.71" x2="1611.47" y2="829.71"/><line class="cls-4" x1="1234.87" y1="884.65" x2="1611.47" y2="884.65"/><line class="cls-4" x1="1234.87" y1="951.66" x2="1688.18" y2="951.66"/><line class="cls-4" x1="1266.25" y1="1007.55" x2="1806.74" y2="1007.55"/><line class="cls-4" x1="1308.1" y1="1154" x2="1883.46" y2="1154"/><line class="cls-4" x1="1283.69" y1="1066.83" x2="1423.17" y2="1066.83"/><line class="cls-4" x1="1234.87" y1="1220.26" x2="1510.35" y2="1220.26"/><line class="cls-4" x1="1266.25" y1="1345.79" x2="1611.47" y2="1345.79"/><line class="cls-4" x1="1483.54" y1="1066.83" x2="1667.26" y2="1066.83"/><line class="cls-4" x1="1266.25" y1="746.02" x2="1740.49" y2="746.02"/><line class="cls-5" x1="1139.92" y1="607.57" x2="1133.38" y2="1656.08"/></svg>