<svg id="Laag_1" data-name="Laag 1" xmlns="http://www.w3.org/2000/svg" viewBox="0 0 2279.99 2279.99"><defs><style>.cls-1,.cls-4,.cls-6{fill:#fff;}.cls-1{stroke:#1d1d1b;opacity:0;}.cls-1,.cls-2{stroke-miterlimit:10;}.cls-2{fill:none;stroke:#e42414;stroke-width:19px;}.cls-3,.cls-5{fill:#e42414;}.cls-5{opacity:0.53;}.cls-6{font-size:228.24px;font-family:Avenir-HeavyOblique, Avenir;letter-spacing:0.05em;}</style></defs><title>oba</title><rect class="cls-1" x="0.5" y="0.5" width="2278.99" height="2278.99"/><line class="cls-2" x1="729.47" y1="482.08" x2="806.71" y2="482.08"/><path class="cls-3" d="M2186.84,2037.58h-1119a58,58,0,0,1-58-58L1170.75,356.41a58,58,0,0,1,58-58h1119A155.26,155.26,0,0,1,2503,453.65L2342.1,1882.32A155.26,155.26,0,0,1,2186.84,2037.58Z" transform="translate(-589.06 0.5)"/><path class="cls-4" d="M2168.61,2009.83h-1119a58,58,0,0,1-58-58L1152.51,328.66a58,58,0,0,1,58-58h1119A155.26,155.26,0,0,1,2484.79,425.9L2323.87,1854.57A155.26,155.26,0,0,1,2168.61,2009.83Z" transform="translate(-589.06 0.5)"/><path class="cls-3" d="M2132.11,1980.6h-1119a58,58,0,0,1-58-58L1116,299.43a58,58,0,0,1,58-58H2293A155.26,155.26,0,0,1,2448.3,396.67L2287.37,1825.34A155.26,155.26,0,0,1,2132.11,1980.6Z" transform="translate(-589.06 0.5)"/><line class="cls-5" x1="586.2" y1="289.29" x2="414.45" y2="1910.42"/><text class="cls-6" transform="translate(900.22 614.47)">Titel</text></svg>