<svg id="Laag_1" data-name="Laag 1" xmlns="http://www.w3.org/2000/svg" xmlns:xlink="http://www.w3.org/1999/xlink" viewBox="0 0 2279.99 2279.99"><defs><style>.cls-1,.cls-5,.cls-6{fill:none;}.cls-2{fill:#cc9f9f;opacity:0;}.cls-2,.cls-5,.cls-6{stroke:#1d1d1b;stroke-miterlimit:10;}.cls-3{fill:#e42414;}.cls-4{fill:#fff;}.cls-5{stroke-width:10px;}.cls-6{stroke-width:3px;}.cls-7{isolation:isolate;}.cls-8{clip-path:url(#clip-path);}.cls-9{clip-path:url(#clip-path-2);}</style><clipPath id="clip-path" transform="translate(-613.38 6.14)"><polygon class="cls-1" points="1387.43 744.37 1414.19 633.34 2047.78 640.67 2070.77 752.93 1387.43 744.37"/></clipPath><clipPath id="clip-path-2" transform="translate(-613.38 6.14)"><polyline class="cls-1" points="1387.43 744.37 1414.19 633.34 2047.78 640.67 2070.77 752.93 1387.43 744.37"/></clipPath></defs><title>iconBookUnder</title><rect class="cls-2" x="0.5" y="0.5" width="2278.99" height="2278.99"/><path class="cls-3" d="M875.82,1374.74c-2.66,112.81,91.48,204.32,204.32,204.32H2552.73a76.36,76.36,0,0,0,76.36-76.36l-3.93-265.4a76.36,76.36,0,0,0-76.36-76.36H1076.22S881,1155.14,875.82,1374.74Z" transform="translate(-613.38 6.14)"/><path class="cls-4" d="M983,1254.19H2645.85a21.69,21.69,0,0,1,21.69,21.69V1499a21.69,21.69,0,0,1-21.69,21.69H983a0,0,0,0,1,0,0V1254.19A0,0,0,0,1,983,1254.19Z" transform="translate(3037.11 2780.99) rotate(-180)"/><polyline class="cls-3" points="1987.98 1191.34 1528.76 574.79 749.33 574.79 313.31 1232.22"/><line class="cls-5" x1="441.05" y1="1328.9" x2="2013.94" y2="1328.9"/><line class="cls-5" x1="441.05" y1="1380.65" x2="2013.94" y2="1380.65"/><line class="cls-5" x1="441.05" y1="1432.41" x2="2013.94" y2="1432.41"/><line class="cls-5" x1="2013.94" y1="1484.17" x2="441.05" y2="1484.17"/><path class="cls-6" d="M2625.16,1237.3" transform="translate(-613.38 6.14)"/><g class="cls-7"><g class="cls-8"><g class="cls-9"><polyline class="cls-4" points="961.18 647.83 799.25 645.94 795.49 661.53 858.88 662.27 841.71 749.48 880.76 749.97 895.71 662.71 959.2 663.46 961.18 647.83"/><path class="cls-4" d="M1644.59,674.18l-35.55-.42-7.19,71.42,37.29.47,5.45-71.46m-15.18-32.81q-2.39,0-4.59.13t-4.21.5a34.6,34.6,0,0,0-3.83.87,28.2,28.2,0,0,0-3.45,1.24,22.24,22.24,0,0,0-2.89,1.5,12.46,12.46,0,0,0-2.12,1.64A7.25,7.25,0,0,0,1607,649a5.26,5.26,0,0,0-.59,1.92,4.74,4.74,0,0,0,.19,1.94,5.69,5.69,0,0,0,1,1.82,9.61,9.61,0,0,0,1.79,1.7,17.87,17.87,0,0,0,2.6,1.59,23.76,23.76,0,0,0,3.23,1.35,30.83,30.83,0,0,0,3.7,1,40.91,40.91,0,0,0,4.16.61q2.19.21,4.62.24t4.67-.12q2.24-.15,4.31-.48a38.33,38.33,0,0,0,4-.84,31.62,31.62,0,0,0,3.59-1.2,21.07,21.07,0,0,0,3-1.48,11.77,11.77,0,0,0,2.18-1.67,7,7,0,0,0,1.37-1.85,5.43,5.43,0,0,0,.56-2,5.06,5.06,0,0,0-.26-2,5.87,5.87,0,0,0-1.09-1.87,9.7,9.7,0,0,0-1.92-1.7,17.85,17.85,0,0,0-2.75-1.52,27.77,27.77,0,0,0-3.36-1.26,35,35,0,0,0-3.76-.91q-2-.37-4.17-.57t-4.57-.23" transform="translate(-613.38 6.14)"/><path class="cls-4" d="M1749.69,655.94l-35.14-.41L1714,675l-29.37-.35-.71,14.63,29.66.36-.94,32.6q0,1.59,0,3.09t.29,2.92a27.06,27.06,0,0,0,.55,2.74,23.85,23.85,0,0,0,.81,2.56,14.7,14.7,0,0,0,1.15,2.38,15.7,15.7,0,0,0,1.59,2.19,18.23,18.23,0,0,0,2,2,22.51,22.51,0,0,0,2.46,1.8,26.08,26.08,0,0,0,2.93,1.6,35.9,35.9,0,0,0,3.45,1.4q1.85.65,4,1.19t4.49,1q2.37.44,5.08.78t5.77.59q3.06.24,6.46.39t7.14.19q1.64,0,3.4,0t3.65-.06l3.91-.12,4.16-.19q2.14-.11,4.12-.27t3.78-.39q1.81-.22,3.45-.5t3.12-.61l-.35-15.64q-.84.3-1.84.55t-2.15.46q-1.15.21-2.46.37t-2.77.28q-1.47.12-2.88.2t-2.76.13q-1.35,0-2.64.07t-2.52,0q-3.09,0-5.66-.27a41.36,41.36,0,0,1-4.64-.66,21.47,21.47,0,0,1-3.61-1.05,10.51,10.51,0,0,1-2.59-1.44,11.39,11.39,0,0,1-1.81-1.77,10,10,0,0,1-1.29-2,10.32,10.32,0,0,1-.77-2.32,12.49,12.49,0,0,1-.25-2.59l.13-31.1,39.6.48-.33-14.65-39.21-.47.08-19.49" transform="translate(-613.38 6.14)"/><path class="cls-4" d="M1863.06,704.63a14.27,14.27,0,0,1,1.26-3.62,15.06,15.06,0,0,1,2.21-3.21,19.18,19.18,0,0,1,3.15-2.8,27.4,27.4,0,0,1,4.09-2.4,33.56,33.56,0,0,1,5-1.91,48.07,48.07,0,0,1,5.88-1.33q3.16-.52,6.76-.76t7.65-.19q4.28.05,8.11.37t7.23.91a58.84,58.84,0,0,1,6.37,1.46,42.39,42.39,0,0,1,5.51,2,29.92,29.92,0,0,1,4.52,2.48,19.5,19.5,0,0,1,3.41,2.89,14.2,14.2,0,0,1,2.31,3.3,12.89,12.89,0,0,1,1.19,3.72l-74.63-.91m39.78-29.08q-4,0-7.9.07t-7.65.39q-3.76.27-7.4.71t-7.16,1q-3.52.6-6.8,1.34t-6.31,1.61q-3,.88-5.82,1.89t-5.33,2.17q-2.54,1.16-4.82,2.44a50.12,50.12,0,0,0-4.27,2.7,41.65,41.65,0,0,0-3.73,3,35.66,35.66,0,0,0-3.18,3.23,24.55,24.55,0,0,0-2.53,3.47,21,21,0,0,0-1.75,3.69,20.08,20.08,0,0,0-1,3.91,21.62,21.62,0,0,0-.19,4.14,22.46,22.46,0,0,0,2,8.18,25.15,25.15,0,0,0,2.15,3.84,30.37,30.37,0,0,0,2.94,3.67,44.73,44.73,0,0,0,3.61,3.47,52.17,52.17,0,0,0,4.18,3.23q2.23,1.56,4.74,3t5.31,2.75q2.8,1.31,5.84,2.49t6.35,2.21q3.3,1,6.85,1.93t7.35,1.64q3.8.75,7.71,1.33t7.93,1q4,.4,8.14.63t8.34.28q4.45.06,8.79-.11t8.55-.54q4.21-.38,8.3-1t8-1.4q3.95-.81,7.66-1.91t7.18-2.5q3.47-1.39,6.69-3.08a69.66,69.66,0,0,0,6.19-3.65l-27.89-10.29q-1.64,1-3.44,2t-3.76,1.82q-2,.86-4.08,1.64t-4.39,1.46q-2.28.68-4.86,1.18t-5.46.82q-2.88.32-6.07.46t-6.67.1q-4,0-7.64-.38t-7.1-1a67.19,67.19,0,0,1-6.56-1.52,57,57,0,0,1-6-2.09,37.21,37.21,0,0,1-5.17-2.59,24.81,24.81,0,0,1-4-3,17.87,17.87,0,0,1-2.9-3.45,15.17,15.17,0,0,1-1.77-3.87l112.07,1.37-.73-5a34.64,34.64,0,0,0-1-4.58,32.31,32.31,0,0,0-3.71-8.29,34.18,34.18,0,0,0-2.71-3.73,43,43,0,0,0-3.22-3.44,46.38,46.38,0,0,0-3.65-3.15q-1.93-1.5-4.09-2.86t-4.52-2.57q-2.37-1.21-4.93-2.29t-5.33-2q-2.77-.94-5.73-1.74t-6.13-1.46q-3.17-.66-6.47-1.17t-6.74-.86q-3.44-.35-7-.55t-7.29-.24" transform="translate(-613.38 6.14)"/><polyline class="cls-4" points="1434.39 646.8 1399.53 646.4 1419.42 756.71 1457 757.18 1434.39 646.8"/></g></g></g></svg>